HIERARCHY
ROOT Hips
{
  OFFSET -27.3825 93.2414 -29.4013
  CHANNELS 6 Xposition Yposition Zposition Zrotation Xrotation Yrotation
  JOINT LeftUpLeg
  {
    OFFSET 9.63379 -0.250344 0
    CHANNELS 6 Xposition Yposition Zposition Zrotation Xrotation Yrotation
    JOINT LeftLeg
    {
      OFFSET 0 -40.4779 -1.71313
      CHANNELS 6 Xposition Yposition Zposition Zrotation Xrotation Yrotation
      JOINT LeftFoot
      {
        OFFSET 0.0126047 -40.4416 -0.864524
        CHANNELS 6 Xposition Yposition Zposition Zrotation Xrotation Yrotation
        JOINT LeftToeBase
        {
          OFFSET -0.183287 -12.1867 8.28226
          CHANNELS 6 Xposition Yposition Zposition Zrotation Xrotation Yrotation
          End Site
          {
            OFFSET 0 0 9.15615
          }
        }
      }
    }
  }
  JOINT RightUpLeg
  {
    OFFSET -9.63379 -0.250344 0
    CHANNELS 6 Xposition Yposition Zposition Zrotation Xrotation Yrotation
    JOINT RightLeg
    {
      OFFSET 0 -40.478 -1.71313
      CHANNELS 6 Xposition Yposition Zposition Zrotation Xrotation Yrotation
      JOINT RightFoot
      {
        OFFSET -0.0126047 -40.4414 -0.864524
        CHANNELS 6 Xposition Yposition Zposition Zrotation Xrotation Yrotation
        JOINT RightToeBase
        {
          OFFSET 0.183287 -12.1867 8.28226
          CHANNELS 6 Xposition Yposition Zposition Zrotation Xrotation Yrotation
          End Site
          {
            OFFSET 0.00319481 0 9.156
          }
        }
      }
    }
  }
  JOINT Spine
  {
    OFFSET 0 5.60909 -1.89659
    CHANNELS 6 Xposition Yposition Zposition Zrotation Xrotation Yrotation
    JOINT Spine1
    {
      OFFSET 0 6.56349 1.09934
      CHANNELS 6 Xposition Yposition Zposition Zrotation Xrotation Yrotation
      JOINT Spine2
      {
        OFFSET 0 7.57662 1.04304
        CHANNELS 6 Xposition Yposition Zposition Zrotation Xrotation Yrotation
        JOINT Spine3
        {
          OFFSET 0 8.29213 0.399731
          CHANNELS 6 Xposition Yposition Zposition Zrotation Xrotation Yrotation
          JOINT Spine4
          {
            OFFSET 0 8.9581 -0.526302
            CHANNELS 6 Xposition Yposition Zposition Zrotation Xrotation Yrotation
            JOINT Neck
            {
              OFFSET 0 18.4163 -4.35419
              CHANNELS 6 Xposition Yposition Zposition Zrotation Xrotation Yrotation
              JOINT Head
              {
                OFFSET 0 8.97127 1.78542
                CHANNELS 6 Xposition Yposition Zposition Zrotation Xrotation Yrotation
                End Site
                {
                  OFFSET 0 19.3737 0.971395
                }
              }
            }
            JOINT LeftShoulder
            {
              OFFSET 6.14423 15.3316 -3.79324
              CHANNELS 6 Xposition Yposition Zposition Zrotation Xrotation Yrotation
              JOINT LeftArm
              {
                OFFSET 9.01906 -1.11411 -1.79347
                CHANNELS 6 Xposition Yposition Zposition Zrotation Xrotation Yrotation
                JOINT LeftForeArm
                {
                  OFFSET 27.687 0 0
                  CHANNELS 6 Xposition Yposition Zposition Zrotation Xrotation Yrotation
                  JOINT LeftHand
                  {
                    OFFSET 27.8738 0 0
                    CHANNELS 6 Xposition Yposition Zposition Zrotation Xrotation Yrotation
                    End Site
                    {
                      OFFSET 0 0 0
                    }
                  }
                }
              }
            }
            JOINT RightShoulder
            {
              OFFSET -6.14423 15.3316 -3.79324
              CHANNELS 6 Xposition Yposition Zposition Zrotation Xrotation Yrotation
              JOINT RightArm
              {
                OFFSET -9.01884 -1.11411 -1.79347
                CHANNELS 6 Xposition Yposition Zposition Zrotation Xrotation Yrotation
                JOINT RightForeArm
                {
                  OFFSET -27.0381 0.00109999 0
                  CHANNELS 6 Xposition Yposition Zposition Zrotation Xrotation Yrotation
                  JOINT RightHand
                  {
                    OFFSET -28.5227 0 0
                    CHANNELS 6 Xposition Yposition Zposition Zrotation Xrotation Yrotation
                    End Site
                    {
                      OFFSET 0 0 0
                    }
                  }
                }
              }
            }
          }
        }
      }
    }
  }
}
MOTION
Frames:	8
Frame Time:	0.00833333
-30.0536 87.9497 -126.568 -0.744762 9.67881 -16.7167 9.63379 -0.250344 -7.15256e-007 5.52741 -34.9065 3.48115 0 -40.4779 -1.71313 2.02574 6.73629 -0.602554 0.0126047 -40.4416 -0.864524 0.621328 -8.85985 0.033626 -0.183287 -12.1867 8.28226 1.03916e-010 7.08055e-011 2.56162e-011 -9.63379 -0.250344 -7.15256e-007 -4.00383 6.92479 8.56787 0 -40.478 -1.71313 8.39579 16.0206 -0.693167 -0.0126047 -40.4414 -0.864524 -0.313971 -1.98671 0.0154705 0.183287 -12.1867 8.28226 -8.59465e-012 -4.35482e-011 4.30774e-011 -2.64698e-023 5.60909 -1.89659 1.57088 -0.33202 1.25707 0 6.56349 1.09934 -0.263075 -0.409415 1.73356 0 7.57662 1.04304 -0.267706 -0.411453 1.73244 0 8.29213 0.399731 -0.272402 -0.413343 1.73132 0 8.9581 -0.526302 -0.277158 -0.415081 1.73022 0 18.4163 -4.35419 -3.2376 -16.0664 0.675014 1.05879e-022 8.97127 1.78542 3.26891 10.26 -0.878967 6.14423 15.3316 -3.79324 -30.8649 1.45809 -0.444847 9.01906 -1.11411 -1.79347 -48.7895 -9.3587 0.51406 27.687 0 0 11.2943 6.0737 -3.01795e-011 27.8738 0 0 1.38198 -1.86544 -4.73597 -6.14423 15.3316 -3.79324 32.732 3.48894 5.47692 -9.01884 -1.11411 -1.79347 24.8178 28.3398 41.3853 -27.0381 0.00109999 5.96046e-008 -3.6809 9.71301 12.5211 -28.5227 0 0 -24.8704 -4.57791 10.0636 
-30.0436 88.0474 -125.53 -0.502443 9.38234 -16.4903 9.63379 -0.250344 -7.15256e-007 5.10003 -33.367 3.73286 0 -40.4779 -1.71313 1.37787 4.83301 -0.606775 0.0126047 -40.4416 -0.864524 0.595636 -7.35743 0.024568 -0.183287 -12.1867 8.28226 1.03916e-010 7.08055e-011 2.56162e-011 -9.63379 -0.250344 -7.15256e-007 -4.27006 7.30585 8.5498 0 -40.478 -1.71313 8.31024 16.4932 -0.830106 -0.0126047 -40.4414 -0.864524 -0.298805 -1.79735 0.0154688 0.183287 -12.1867 8.28226 -8.59465e-012 -4.35482e-011 4.30774e-011 -2.64698e-023 5.60909 -1.89659 1.43961 -0.316389 1.15023 0 6.56349 1.09934 -0.307209 -0.395623 1.66391 0 7.57662 1.04304 -0.31126 -0.397397 1.66279 0 8.29213 0.399731 -0.315366 -0.399045 1.66168 0 8.9581 -0.526302 -0.319523 -0.400565 1.66058 0 18.4163 -4.35419 -3.0717 -15.695 0.68055 1.05879e-022 8.97127 1.78542 3.09356 10.0412 -0.798934 6.14423 15.3316 -3.79324 -30.8564 1.4443 -0.408362 9.01906 -1.11411 -1.79347 -48.8061 -9.37581 0.678101 27.687 0 0 11.2898 5.8893 -3.01694e-011 27.8738 0 0 1.46929 -1.83179 -4.67206 -6.14423 15.3316 -3.79324 32.8638 3.49393 5.45852 -9.01884 -1.11411 -1.79347 24.8894 28.4447 40.8747 -27.0381 0.00109999 5.96046e-008 -3.63984 9.75011 12.5414 -28.5227 0 0 -24.4337 -4.47691 10.0595 
-30.0249 88.1601 -124.377 -0.252162 9.10904 -16.1793 9.63379 -0.250344 -7.15256e-007 4.56715 -31.9882 3.85313 0 -40.4779 -1.71313 0.81108 3.28028 -0.621756 0.0126047 -40.4416 -0.864524 0.572222 -5.98 0.0164697 -0.183287 -12.1867 8.28226 1.03916e-010 7.08055e-011 2.56162e-011 -9.63379 -0.250344 -7.15256e-007 -4.53485 7.5286 8.56526 0 -40.478 -1.71313 8.31552 17.2057 -1.05268 -0.0126047 -40.4414 -0.864524 -0.296153 -1.61733 0.0154673 0.183287 -12.1867 8.28226 -8.59465e-012 -4.35482e-011 4.30774e-011 -2.64698e-023 5.60909 -1.89659 1.3183 -0.30933 1.03516 0 6.56349 1.09934 -0.355192 -0.396461 1.58561 0 7.57662 1.04304 -0.358701 -0.397988 1.58446 0 8.29213 0.399731 -0.362256 -0.39941 1.58333 0 8.9581 -0.526302 -0.365854 -0.400725 1.5822 0 18.4163 -4.35419 -2.91791 -15.3016 0.657226 1.05879e-022 8.97127 1.78542 2.94937 9.82519 -0.756416 6.14423 15.3316 -3.79324 -30.8452 1.4386 -0.394148 9.01906 -1.11411 -1.79347 -48.8188 -9.38011 0.801132 27.687 0 0 11.2802 5.73968 -3.01613e-011 27.8738 0 0 1.52007 -1.81087 -4.61557 -6.14423 15.3316 -3.79324 33.0076 3.48822 5.41121 -9.01884 -1.11411 -1.79347 25.0933 28.4986 40.1843 -27.0381 0.00109999 5.96046e-008 -3.57539 9.79809 12.5011 -28.5227 0 0 -24.0512 -4.39074 10.0682 
-29.991 88.2988 -123.019 0.0112848 8.87631 -15.7196 9.63379 -0.250344 -7.15256e-007 3.87565 -30.8903 3.75486 0 -40.4779 -1.71313 0.385875 2.341 -0.654723 0.0126047 -40.4416 -0.864524 0.552293 -4.8213 0.00995824 -0.183287 -12.1867 8.28226 1.03916e-010 7.08055e-011 2.56162e-011 -9.63379 -0.250344 -7.15256e-007 -4.79734 7.47422 8.63892 0 -40.478 -1.71313 8.48694 18.3373 -1.42754 -0.0126047 -40.4414 -0.864524 -0.315399 -1.45363 0.0154662 0.183287 -12.1867 8.28226 -8.59465e-012 -4.35482e-011 4.30774e-011 -2.64698e-023 5.60909 -1.89659 1.2143 -0.317271 0.905705 0 6.56349 1.09934 -0.410017 -0.422904 1.49213 0 7.57662 1.04304 -0.41305 -0.424216 1.49093 0 8.29213 0.399731 -0.416123 -0.42544 1.48973 0 8.9581 -0.526302 -0.419232 -0.426573 1.48854 0 18.4163 -4.35419 -2.78441 -14.8698 0.583613 1.05879e-022 8.97127 1.78542 2.85871 9.61393 -0.779361 6.14423 15.3316 -3.79324 -30.8293 1.44707 -0.418911 9.01906 -1.11411 -1.79347 -48.8249 -9.36206 0.852372 27.687 0 0 11.2614 5.65091 -3.01567e-011 27.8738 0 0 1.50703 -1.81226 -4.57205 -6.14423 15.3316 -3.79324 33.1721 3.46376 5.31332 -9.01884 -1.11411 -1.79347 25.5237 28.4574 39.1805 -27.0381 0.00109999 5.96046e-008 -3.46976 9.86515 12.3544 -28.5227 0 0 -23.7633 -4.33055 10.0993 
-29.9348 88.4712 -121.386 0.303685 8.68968 -15.061 9.63379 -0.250344 -7.15256e-007 2.95732 -30.1475 3.34618 0 -40.4779 -1.71313 0.157023 2.14178 -0.710602 0.0126047 -40.4416 -0.864524 0.537599 -3.91684 0.00527736 -0.183287 -12.1867 8.28226 1.03916e-010 7.08055e-011 2.56162e-011 -9.63379 -0.250344 -7.15256e-007 -5.08522 7.16419 8.83861 0 -40.478 -1.71313 8.9435 19.9269 -2.03528 -0.0126047 -40.4414 -0.864524 -0.366844 -1.31103 0.0154652 0.183287 -12.1867 8.28226 -8.59465e-012 -4.35482e-011 4.30774e-011 -2.64698e-023 5.60909 -1.89659 1.11841 -0.343795 0.753852 0 6.56349 1.09934 -0.473425 -0.482766 1.37717 0 7.57662 1.04304 -0.476055 -0.483893 1.37588 0 8.29213 0.399731 -0.478718 -0.484945 1.37461 0 8.9581 -0.526302 -0.481415 -0.485921 1.37334 0 18.4163 -4.35419 -2.66791 -14.3774 0.445165 1.05879e-022 8.97127 1.78542 2.8591 9.41019 -0.892681 6.14423 15.3316 -3.79324 -30.8128 1.4748 -0.495851 9.01906 -1.11411 -1.79347 -48.8225 -9.31457 0.839689 27.687 0 0 11.2256 5.63177 -3.01557e-011 27.8738 0 0 1.43739 -1.83306 -4.52933 -6.14423 15.3316 -3.79324 33.3701 3.41447 5.14676 -9.01884 -1.11411 -1.79347 26.1844 28.3114 37.7956 -27.0381 0.00109999 5.96046e-008 -3.31416 9.95172 12.114 -28.5227 0 0 -23.5643 -4.30128 10.1855 
-29.8607 88.6697 -119.534 0.622813 8.53621 -14.2465 9.63379 -0.250344 -7.15256e-007 1.86152 -29.677 2.69119 0 -40.4779 -1.71313 0.0852857 2.50731 -0.784328 0.0126047 -40.4416 -0.864524 0.527127 -3.20412 0.00197253 -0.183287 -12.1867 8.28226 1.03916e-010 7.08055e-011 2.56162e-011 -9.63379 -0.250344 -7.15256e-007 -5.39549 6.6781 9.14773 0 -40.478 -1.71313 9.66963 21.8514 -2.84522 -0.0126047 -40.4414 -0.864524 -0.444231 -1.18487 0.0154645 0.183287 -12.1867 8.28226 -8.59465e-012 -4.35482e-011 4.30774e-011 -2.64698e-023 5.60909 -1.89659 1.02553 -0.384616 0.583719 0 6.56349 1.09934 -0.543687 -0.568734 1.24504 0 7.57662 1.04304 -0.545964 -0.569698 1.24366 0 8.29213 0.399731 -0.548274 -0.570598 1.2423 0 8.9581 -0.526302 -0.550613 -0.571434 1.24095 0 18.4163 -4.35419 -2.56068 -13.8354 0.256728 1.05879e-022 8.97127 1.78542 2.93453 9.21254 -1.07756 6.14423 15.3316 -3.79324 -30.7968 1.51774 -0.613836 9.01906 -1.11411 -1.79347 -48.8134 -9.24399 0.783616 27.687 0 0 11.1755 5.66488 -3.01574e-011 27.8738 0 0 1.32942 -1.86688 -4.4837 -6.14423 15.3316 -3.79324 33.5953 3.34566 4.92602 -9.01884 -1.11411 -1.79347 26.9968 28.0662 36.1228 -27.0381 0.00109999 5.96046e-008 -3.11986 10.0523 11.8102 -28.5227 0 0 -23.4269 -4.2955 10.3202 
-29.7792 88.883 -117.574 0.946355 8.40583 -13.3506 9.63379 -0.250344 -7.15256e-007 0.707724 -29.3641 1.93453 0 -40.4779 -1.71313 0.0905873 3.24769 -0.868229 0.0126047 -40.4416 -0.864524 0.517923 -2.62989 -0.000369991 -0.183287 -12.1867 8.28226 1.03916e-010 7.08055e-011 2.56162e-011 -9.63379 -0.250344 -7.15256e-007 -5.68078 5.98461 9.46486 0 -40.478 -1.71313 10.5415 24.0472 -3.76003 -0.0126047 -40.4414 -0.864524 -0.53211 -1.06798 0.0154639 0.183287 -12.1867 8.28226 -8.59465e-012 -4.35482e-011 4.30774e-011 -2.64698e-023 5.60909 -1.89659 0.949213 -0.434363 0.407299 0 6.56349 1.09934 -0.618576 -0.669096 1.10524 0 7.57662 1.04304 -0.620548 -0.669919 1.10374 0 8.29213 0.399731 -0.622549 -0.670687 1.10226 0 8.9581 -0.526302 -0.62458 -0.671399 1.10078 0 18.4163 -4.35419 -2.46443 -13.2767 0.0408976 1.05879e-022 8.97127 1.78542 3.02716 9.01685 -1.29638 6.14423 15.3316 -3.79324 -30.7752 1.56824 -0.753068 9.01906 -1.11411 -1.79347 -48.8002 -9.16101 0.67239 27.687 0 0 11.1228 5.73707 -3.01612e-011 27.8738 0 0 1.17237 -1.9181 -4.45342 -6.14423 15.3316 -3.79324 33.8281 3.26634 4.67825 -9.01884 -1.11411 -1.79347 27.9248 27.6972 34.2739 -27.0381 0.00109999 5.96046e-008 -2.8987 10.166 11.4239 -28.5227 0 0 -23.3601 -4.30576 10.4547 
-29.701 89.0999 -115.612 1.25143 8.2892 -12.4482 9.63379 -0.250344 -7.15256e-007 -0.385485 -29.0967 1.22082 0 -40.4779 -1.71313 0.0919595 4.17299 -0.95465 0.0126047 -40.4416 -0.864524 0.507079 -2.14088 -0.00215948 -0.183287 -12.1867 8.28226 1.03916e-010 7.08055e-011 2.56162e-011 -9.63379 -0.250344 -7.15256e-007 -5.89713 5.05213 9.68968 0 -40.478 -1.71313 11.419 26.4528 -4.67854 -0.0126047 -40.4414 -0.864524 -0.615032 -0.953219 0.0154633 0.183287 -12.1867 8.28226 -8.59465e-012 -4.35482e-011 4.30774e-011 -2.64698e-023 5.60909 -1.89659 0.90309 -0.487664 0.23659 0 6.56349 1.09934 -0.695714 -0.772137 0.967271 0 7.57662 1.04304 -0.697416 -0.772841 0.965585 0 8.29213 0.399731 -0.699148 -0.773496 0.963911 0 8.9581 -0.526302 -0.700911 -0.7741 0.962248 0 18.4163 -4.35419 -2.38214 -12.7344 -0.180066 1.05879e-022 8.97127 1.78542 3.07964 8.81908 -1.5116 6.14423 15.3316 -3.79324 -30.7418 1.61865 -0.893746 9.01906 -1.11411 -1.79347 -48.7853 -9.0763 0.49426 27.687 0 0 11.0792 5.83517 -3.01664e-011 27.8738 0 0 0.955427 -1.99107 -4.45676 -6.14423 15.3316 -3.79324 34.0494 3.18558 4.43058 -9.01884 -1.11411 -1.79347 28.9335 27.1889 32.3623 -27.0381 0.00109999 5.96046e-008 -2.66232 10.292 10.9362 -28.5227 0 0 -23.373 -4.32466 10.54 
